<svg width="64" height="52" viewBox="0 0 64 52" fill="none" xmlns="http://www.w3.org/2000/svg">
   <defs>
      <linearGradient id="paint0_linear" x1="32" y1="3" x2="32" y2="49" gradientUnits="userSpaceOnUse">
         <stop stop-color="var(--color-stop-1)"/>
         <stop offset="1" stop-color="var(--color-stop-2)"/>
      </linearGradient>
   </defs>
   <path d="M30.4734 49.9796L30.5931 50.0737L30.7293 50.1417C30.7375 50.1458 30.7479 50.1512 30.7603 50.1576C30.9201 50.2403 31.4222 50.5 32 50.5L32.0082 50.5C32.0625 50.5002 32.2448 50.5007 32.4465 50.4671C32.6025 50.4411 32.9662 50.3664 33.3102 50.0945C33.7283 49.7998 34.5 49.1221 34.5 48.0002V40.5027H60C60.6408 40.5027 61.2914 40.2826 61.7856 39.7886C62.2798 39.2944 62.5 38.6438 62.5 38.0029V14.0061C62.5 13.3652 62.2798 12.7146 61.7856 12.2205C61.2914 11.7264 60.6408 11.5063 60 11.5063H34.5V4.00882C34.5 3.54632 34.38 3.07474 34.098 2.65176C33.8394 2.26389 33.4947 1.99178 33.1411 1.80361C32.6096 1.48757 32.0456 1.4729 31.664 1.52059C31.2427 1.57324 30.8198 1.72636 30.4681 1.96083L30.4194 1.99327L30.3734 2.02941L2.37338 24.0251L2.30286 24.0805L2.23944 24.1439C1.69443 24.6888 1.5 25.4068 1.5 26.0045C1.5 26.635 1.72486 27.4576 2.5096 28.0124L30.4734 49.9796Z" fill="url(#paint0_linear)" stroke="white" stroke-width="3"/>
</svg>
