<svg width="32" height="32" viewBox="0 0 32 32" fill="none" xmlns="http://www.w3.org/2000/svg">
   <path d="M19.1 2H2.9C2.40294 2 2 2.40878 2 2.91304V22.087C2 22.5912 2.40294 23 2.9 23H19.1C19.5971 23 20 22.5912 20 22.087V2.91304C20 2.40878 19.5971 2 19.1 2Z" fill="white"/>
   <path d="M30.685 9.35702L22.294 7.11102L21.777 9.04302L29.2 11.03L24.289 29.385L6.9 24.73L6.383 26.662L24.737 31.575C24.8215 31.5974 24.9086 31.6089 24.996 31.609C25.2161 31.609 25.4301 31.5364 25.6048 31.4025C25.7794 31.2685 25.905 31.0806 25.962 30.868L31.392 10.582C31.426 10.4552 31.4347 10.3228 31.4176 10.1926C31.4005 10.0624 31.3579 9.93683 31.2922 9.82307C31.2266 9.70932 31.1392 9.60961 31.035 9.52964C30.9308 9.44968 30.8119 9.39102 30.685 9.35702Z" fill="white"/>
</svg>
