<svg width="32" height="32" viewBox="0 0 32 32" fill="none" xmlns="http://www.w3.org/2000/svg">
   <path d="M16 0C7.178 0 0 7.178 0 16C0 24.822 7.178 32 16 32C24.822 32 32 24.822 32 16C32 7.178 24.822 0 16 0ZM18 7C19.105 7 20 7.895 20 9C20 10.105 19.105 11 18 11C16.895 11 16 10.105 16 9C16 7.895 16.895 7 18 7ZM19.763 24.046C17.944 24.762 17.413 25 16.245 25C15.291 25 14.549 24.767 14.02 24.302C12.975 23.382 13.151 22.054 13.478 20.694L14.462 17.211C14.652 16.494 15.037 15.029 14.498 14.515C13.959 14.001 12.704 14.326 11.974 14.598L12.237 13.525C13.291 13.096 14.623 12.571 15.76 12.571C17.47 12.571 18.721 13.426 18.721 15.04C18.721 15.191 18.703 15.457 18.668 15.839C18.602 16.54 18.582 16.494 17.49 20.36C17.368 20.785 17.179 21.688 17.179 22.125C17.179 23.808 19.136 23.392 20.026 22.972L19.763 24.046Z" fill="white"/>
</svg>
