<svg width="36" height="36" viewBox="0 0 36 36" fill="none" xmlns="http://www.w3.org/2000/svg">
<g clip-path="url(#clip0)" filter="url(#filter0_d)">
<path d="M18 0C14.8355 0 11.7421 0.938384 9.11088 2.69649C6.4797 4.45459 4.42894 6.95345 3.21793 9.87706C2.00693 12.8007 1.69008 16.0177 2.30744 19.1214C2.92481 22.2251 4.44866 25.0761 6.6863 27.3137C8.92394 29.5513 11.7749 31.0752 14.8786 31.6926C17.9823 32.3099 21.1993 31.9931 24.1229 30.7821C27.0466 29.5711 29.5454 27.5203 31.3035 24.8891C33.0616 22.2579 34 19.1645 34 16C33.995 11.7581 32.3077 7.69134 29.3082 4.69185C26.3087 1.69235 22.2419 0.00502833 18 0V0ZM22.481 8.131L24.244 5.7C24.4005 5.48544 24.6358 5.34183 24.8982 5.30076C25.1605 5.25969 25.4284 5.32452 25.643 5.481C25.8576 5.63748 26.0012 5.87278 26.0422 6.13514C26.0833 6.39751 26.0185 6.66544 25.862 6.88L24.1 9.307C24.0228 9.41324 23.9254 9.50323 23.8134 9.57183C23.7014 9.64043 23.577 9.68631 23.4473 9.70683C23.3176 9.72735 23.1851 9.72212 23.0574 9.69144C22.9297 9.66075 22.8092 9.60522 22.703 9.528C22.5968 9.45078 22.5068 9.3534 22.4382 9.2414C22.3696 9.12941 22.3237 9.00499 22.3032 8.87527C22.2827 8.74555 22.2879 8.61305 22.3186 8.48535C22.3493 8.35765 22.4048 8.23724 22.482 8.131H22.481ZM10.359 5.483C10.4653 5.4053 10.586 5.34937 10.714 5.31842C10.842 5.28747 10.9748 5.28211 11.1049 5.30264C11.235 5.32318 11.3598 5.3692 11.472 5.43808C11.5842 5.50696 11.6818 5.59733 11.759 5.704L13.522 8.131C13.678 8.34609 13.7421 8.61432 13.7002 8.87669C13.6584 9.13905 13.5141 9.37405 13.299 9.53C13.0839 9.68595 12.8157 9.75006 12.5533 9.70824C12.291 9.66642 12.056 9.52209 11.9 9.307L10.138 6.88C10.0608 6.77377 10.0052 6.65336 9.97454 6.52565C9.94384 6.39795 9.93861 6.26545 9.95913 6.13572C9.97966 6.00599 10.0255 5.88158 10.0941 5.76959C10.1628 5.65759 10.2528 5.56021 10.359 5.483ZM9.75001 19.732L6.90001 20.659C6.77354 20.7065 6.63875 20.7279 6.50377 20.7219C6.3688 20.7159 6.23645 20.6826 6.1147 20.624C5.99296 20.5654 5.88435 20.4828 5.79542 20.3811C5.7065 20.2794 5.63911 20.1607 5.59732 20.0322C5.55553 19.9037 5.54021 19.7681 5.55228 19.6336C5.56435 19.499 5.60356 19.3683 5.66755 19.2493C5.73154 19.1303 5.81898 19.0255 5.92458 18.9412C6.03019 18.857 6.15178 18.795 6.28201 18.759L9.13501 17.832C9.26134 17.785 9.39588 17.764 9.53054 17.7703C9.66519 17.7766 9.79719 17.81 9.91858 17.8686C10.04 17.9273 10.1483 18.0098 10.237 18.1113C10.3256 18.2128 10.3929 18.3313 10.4346 18.4594C10.4764 18.5876 10.4918 18.7229 10.4799 18.8572C10.4681 18.9915 10.4292 19.1219 10.3656 19.2408C10.302 19.3597 10.2151 19.4645 10.11 19.5489C10.0049 19.6333 9.8838 19.6956 9.75401 19.732H9.75001ZM19 28C19 28.2652 18.8947 28.5196 18.7071 28.7071C18.5196 28.8946 18.2652 29 18 29C17.7348 29 17.4804 28.8946 17.2929 28.7071C17.1054 28.5196 17 28.2652 17 28V25C17 24.7348 17.1054 24.4804 17.2929 24.2929C17.4804 24.1054 17.7348 24 18 24C18.2652 24 18.5196 24.1054 18.7071 24.2929C18.8947 24.4804 19 24.7348 19 25V28ZM18 20.243L13.013 22.865L13.965 17.311L9.93001 13.378L15.506 12.568L18 7.515L20.494 12.568L26.07 13.378L22.035 17.311L22.988 22.865L18 20.243ZM29.1 20.659L26.246 19.732C26.1162 19.6956 25.9951 19.6333 25.89 19.5489C25.7849 19.4645 25.698 19.3597 25.6344 19.2408C25.5708 19.1219 25.5319 18.9915 25.5201 18.8572C25.5082 18.7229 25.5236 18.5876 25.5654 18.4594C25.6071 18.3313 25.6744 18.2128 25.7631 18.1113C25.8517 18.0098 25.96 17.9273 26.0814 17.8686C26.2028 17.81 26.3348 17.7766 26.4695 17.7703C26.6041 17.764 26.7387 17.785 26.865 17.832L29.718 18.759C29.959 18.8495 30.1558 19.0295 30.2674 19.2615C30.379 19.4935 30.3969 19.7596 30.3172 20.0044C30.2376 20.2492 30.0666 20.4539 29.8399 20.5758C29.6132 20.6978 29.3482 20.7275 29.1 20.659Z" fill="white"/>
</g>
<defs>
<filter id="filter0_d" x="0" y="0" width="36" height="36" filterUnits="userSpaceOnUse" color-interpolation-filters="sRGB">
<feFlood flood-opacity="0" result="BackgroundImageFix"/>
<feColorMatrix in="SourceAlpha" type="matrix" values="0 0 0 0 0 0 0 0 0 0 0 0 0 0 0 0 0 0 127 0"/>
<feOffset dy="2"/>
<feGaussianBlur stdDeviation="1"/>
<feColorMatrix type="matrix" values="0 0 0 0 0 0 0 0 0 0 0 0 0 0 0 0 0 0 0.25 0"/>
<feBlend mode="normal" in2="BackgroundImageFix" result="effect1_dropShadow"/>
<feBlend mode="normal" in="SourceGraphic" in2="effect1_dropShadow" result="shape"/>
</filter>
<clipPath id="clip0">
<rect width="32" height="32" fill="white" transform="translate(2)"/>
</clipPath>
</defs>
</svg>
