<svg width="32" height="32" viewBox="0 0 32 32" fill="none" xmlns="http://www.w3.org/2000/svg">
   <path d="M16 20C18.2091 20 20 18.2091 20 16C20 13.7909 18.2091 12 16 12C13.7909 12 12 13.7909 12 16C12 18.2091 13.7909 20 16 20Z" fill="white"/>
   <path d="M2.00001 17C2.26523 17 2.51958 16.8946 2.70712 16.7071C2.89466 16.5195 3.00001 16.2652 3.00001 16C2.99652 13.4713 3.73161 10.9966 5.11502 8.87983C6.49843 6.76309 8.46993 5.09645 10.7874 4.08461C13.1048 3.07277 15.6674 2.75977 18.1602 3.18406C20.6531 3.60835 22.9678 4.75145 24.82 6.47298L22.146 9.14598C22.0834 9.20858 22.0384 9.28671 22.0159 9.37237C21.9933 9.45802 21.9939 9.54813 22.0176 9.63348C22.0413 9.71883 22.0873 9.79635 22.1508 9.85811C22.2143 9.91987 22.293 9.96365 22.379 9.98498L30.379 11.985C30.4572 12.0045 30.539 12.0048 30.6173 11.9859C30.6957 11.967 30.7683 11.9294 30.829 11.8764C30.8897 11.8233 30.9367 11.7564 30.966 11.6813C30.9952 11.6062 31.0059 11.5251 30.997 11.445L29.997 2.44498C29.987 2.35113 29.9505 2.26204 29.892 2.18802C29.8334 2.114 29.7551 2.05806 29.6661 2.02668C29.5771 1.9953 29.481 1.98976 29.389 2.01069C29.2969 2.03162 29.2127 2.07818 29.146 2.14498L26.234 5.05898C24.1021 3.05719 21.431 1.72319 18.5499 1.22149C15.6689 0.719789 12.704 1.07234 10.021 2.23566C7.33792 3.39898 5.05405 5.32219 3.45104 7.76808C1.84804 10.214 0.995997 13.0756 1.00001 16C1.00001 16.2652 1.10537 16.5195 1.29291 16.7071C1.48044 16.8946 1.7348 17 2.00001 17Z" fill="white"/>
   <path d="M30 15C29.7348 15 29.4804 15.1054 29.2929 15.2929C29.1054 15.4804 29 15.7348 29 16C29.0035 18.5287 28.2684 21.0034 26.885 23.1201C25.5016 25.2369 23.5301 26.9035 21.2127 27.9154C18.8952 28.9272 16.3327 29.2402 13.8398 28.8159C11.3469 28.3916 9.03225 27.2485 7.18002 25.527L9.85402 22.854C9.91668 22.7914 9.96159 22.7133 9.98414 22.6276C10.0067 22.542 10.0061 22.4518 9.98239 22.3665C9.95869 22.2812 9.91274 22.2036 9.84925 22.1419C9.78575 22.0801 9.70699 22.0363 9.62102 22.015L1.62102 20.015C1.54281 19.9955 1.46104 19.9952 1.38269 20.0141C1.30433 20.033 1.23171 20.0706 1.17101 20.1236C1.11031 20.1767 1.06333 20.2436 1.03408 20.3187C1.00483 20.3938 0.994174 20.4749 1.00302 20.555L2.00302 29.555C2.01307 29.6488 2.04949 29.7379 2.10805 29.812C2.16661 29.886 2.24492 29.9419 2.33394 29.9733C2.42295 30.0047 2.51904 30.0102 2.61107 29.9893C2.7031 29.9684 2.78733 29.9218 2.85402 29.855L5.76602 26.942C7.89796 28.9438 10.5692 30.2779 13.4504 30.7795C16.3315 31.2812 19.2964 30.9286 21.9795 29.7651C24.6626 28.6017 26.9465 26.6783 28.5494 24.2323C30.1523 21.7862 31.0042 18.9245 31 16C31 15.7348 30.8947 15.4804 30.7071 15.2929C30.5196 15.1054 30.2652 15 30 15Z" fill="white"/>
</svg>
