<svg width="32" height="28" viewBox="0 0 32 28" fill="none" xmlns="http://www.w3.org/2000/svg">
   <path d="M20.454 0.108997C20.12 -0.0610029 19.717 -0.0310029 19.412 0.190997L8.675 8H1C0.447 8 0 8.447 0 9V19C0 19.553 0.447 20 1 20H8.675L19.412 27.809C19.586 27.936 19.793 28 20 28C20.155 28 20.311 27.964 20.454 27.891C20.789 27.721 21 27.376 21 27V0.999997C21 0.623997 20.789 0.278997 20.454 0.108997Z" fill="white"/>
   <path d="M27 9C24.243 9 22 11.243 22 14C22 16.757 24.243 19 27 19C29.757 19 32 16.757 32 14C32 11.243 29.757 9 27 9ZM30 14C30 14.464 29.885 14.897 29.697 15.29L25.711 11.303C26.103 11.114 26.537 11 27 11C28.654 11 30 12.346 30 14ZM24 14C24 13.54 24.113 13.109 24.299 12.719L28.281 16.702C27.891 16.888 27.46 17 27 17C25.346 17 24 15.654 24 14Z" fill="white"/>
</svg>
