<svg width="32" height="28" viewBox="0 0 32 28" fill="none" xmlns="http://www.w3.org/2000/svg">
   <path d="M20.454 0.108997C20.119 -0.0610029 19.717 -0.0310029 19.412 0.190997L8.675 8H1C0.447 8 0 8.447 0 9V19C0 19.553 0.447 20 1 20H8.675L19.412 27.809C19.586 27.936 19.793 28 20 28C20.155 28 20.311 27.964 20.454 27.891C20.789 27.721 21 27.376 21 27V0.999997C21 0.623997 20.789 0.278997 20.454 0.108997Z" fill="white"/>
   <path d="M32 13H26V15H32V13Z" fill="white"/>
   <path d="M29.09 4.13485L23.8934 7.13425L24.8932 8.86645L30.0898 5.86705L29.09 4.13485Z" fill="white"/>
   <path d="M24.8924 19.1348L23.8924 20.8668L29.0884 23.8668L30.0884 22.1348L24.8924 19.1348Z" fill="white"/>
</svg>
