<svg width="32" height="32" viewBox="0 0 32 32" fill="none" xmlns="http://www.w3.org/2000/svg">
   <g clip-path="url(#clip0)">
      <path d="M10.5311 1C8.69546 2.06256 7.35625 3.80988 6.8073 5.85861C6.25834 7.90734 6.54447 10.0902 7.60291 11.9282L13.6029 22.3205C13.7355 22.5502 13.9539 22.7178 14.2101 22.7864C14.4663 22.8551 14.7392 22.8191 14.9689 22.6865L18.433 20.6865L22.933 28.4808C23.1982 28.9401 23.6351 29.2753 24.1474 29.4126C24.6598 29.5499 25.2057 29.478 25.6651 29.2128C26.1245 28.9476 26.4596 28.5108 26.5969 27.9984C26.7342 27.486 26.6624 26.9401 26.3971 26.4808L11.8971 1.36603C11.7645 1.13634 11.5461 0.968742 11.2899 0.900099C11.0337 0.831456 10.7608 0.867392 10.5311 1V1Z" fill="white"/>
   </g>
   <defs>
      <clipPath id="clip0">
         <rect width="32" height="32" fill="white"/>
      </clipPath>
   </defs>
</svg>
