<svg width="77" height="79" viewBox="0 0 77 79" fill="none" xmlns="http://www.w3.org/2000/svg">
   <path d="M5.65799 25.4755L15.0213 41.2226L7.35756 57.8602L7.35631 57.8629C6.96696 58.7099 6.82211 59.6488 6.93811 60.5736C7.05411 61.4986 7.42636 62.3726 8.01277 63.0971C8.59922 63.8217 9.37654 64.3678 10.257 64.674C11.1373 64.9802 12.0858 65.0341 12.9953 64.8298L12.9998 64.8288L30.8684 60.7922L44.3252 73.2205L44.3284 73.2234C45.0139 73.8551 45.8622 74.2826 46.7778 74.4577C47.6933 74.6327 48.6396 74.5484 49.5098 74.2141C50.3799 73.8798 51.1393 73.309 51.7021 72.5661C52.2651 71.8231 52.6091 70.9376 52.6953 70.0094L52.6956 70.0064L54.3769 51.7679L70.3593 42.8122L70.3684 42.8071C71.1798 42.3496 71.8472 41.6747 72.2955 40.8583C72.7432 40.0431 72.9546 39.1192 72.906 38.1906C72.906 38.1892 72.9059 38.1878 72.9058 38.1864C72.8565 37.2553 72.5479 36.3565 72.0148 35.5916C71.4809 34.8255 70.7431 34.2243 69.885 33.8559L53.0602 26.6207L49.4833 8.65689L49.4547 8.51322L49.4156 8.37203C49.1817 7.52588 48.7308 6.75551 48.1075 6.13722C47.4843 5.51892 46.7104 5.07414 45.8624 4.84692C45.0144 4.61971 44.1217 4.61792 43.2728 4.84177C42.4239 5.06562 41.6483 5.50732 41.0226 6.12312L40.9186 6.22544L40.8224 6.33506L28.736 20.1029L10.5472 17.9562C10.5459 17.9561 10.5446 17.9559 10.5433 17.9558C9.61819 17.8464 8.68092 17.9977 7.83717 18.3925C6.99223 18.7879 6.27475 19.4117 5.76584 20.1935C5.25693 20.9754 4.97689 21.884 4.95738 22.8166C4.93787 23.7493 5.17967 24.6688 5.65544 25.4712L5.65799 25.4755ZM66.727 41.2063C66.7263 41.206 66.7256 41.2057 66.725 41.2054L66.727 41.2063Z" fill="#F9D006" stroke="white" stroke-width="8"/>
</svg>
