<svg width="32" height="32" viewBox="0 0 32 32" fill="none" xmlns="http://www.w3.org/2000/svg">
   <g clip-path="url(#clip0)">
      <path d="M16 0C12.8355 0 9.74207 0.938384 7.11088 2.69649C4.4797 4.45459 2.42894 6.95345 1.21793 9.87706C0.0069325 12.8007 -0.309921 16.0177 0.307443 19.1214C0.924806 22.2251 2.44866 25.0761 4.6863 27.3137C6.92394 29.5513 9.77487 31.0752 12.8786 31.6926C15.9823 32.3099 19.1993 31.9931 22.1229 30.7821C25.0466 29.5711 27.5454 27.5203 29.3035 24.8891C31.0616 22.2579 32 19.1645 32 16C32 11.7565 30.3143 7.68687 27.3137 4.68629C24.3131 1.68571 20.2435 0 16 0V0ZM9.00001 13.5V14.5H7.00001V13.5C7.00001 12.5717 7.36876 11.6815 8.02513 11.0251C8.68151 10.3687 9.57175 10 10.5 10C11.4283 10 12.3185 10.3687 12.9749 11.0251C13.6313 11.6815 14 12.5717 14 13.5V14.5H12V13.5C12 13.1022 11.842 12.7206 11.5607 12.4393C11.2794 12.158 10.8978 12 10.5 12C10.1022 12 9.72065 12.158 9.43935 12.4393C9.15804 12.7206 9.00001 13.1022 9.00001 13.5ZM19 27C19 27.7956 18.6839 28.5587 18.1213 29.1213C17.5587 29.6839 16.7957 30 16 30C15.2044 30 14.4413 29.6839 13.8787 29.1213C13.3161 28.5587 13 27.7956 13 27V22C13 21.7348 13.1054 21.4804 13.2929 21.2929C13.4804 21.1054 13.7348 21 14 21H18C18.2652 21 18.5196 21.1054 18.7071 21.2929C18.8947 21.4804 19 21.7348 19 22V27ZM20 22.45V22C20 21.4696 19.7893 20.9609 19.4142 20.5858C19.0391 20.2107 18.5304 20 18 20H14C13.4696 20 12.9609 20.2107 12.5858 20.5858C12.2107 20.9609 12 21.4696 12 22V22.45C11.3717 21.8912 10.8687 21.2059 10.524 20.4389C10.1793 19.672 10.0007 18.8408 10 18H22C21.9993 18.8408 21.8207 19.672 21.476 20.4389C21.1313 21.2059 20.6283 21.8912 20 22.45ZM25 14.5H23V13.5C23 13.1022 22.842 12.7206 22.5607 12.4393C22.2794 12.158 21.8978 12 21.5 12C21.1022 12 20.7207 12.158 20.4393 12.4393C20.158 12.7206 20 13.1022 20 13.5V14.5H18V13.5C18 12.5717 18.3688 11.6815 19.0251 11.0251C19.6815 10.3687 20.5718 10 21.5 10C22.4283 10 23.3185 10.3687 23.9749 11.0251C24.6313 11.6815 25 12.5717 25 13.5V14.5Z" fill="white"/>
   </g>
   <defs>
      <clipPath id="clip0">
         <rect width="32" height="32" fill="white"/>
      </clipPath>
   </defs>
</svg>
