<svg width="36" height="36" viewBox="0 0 36 36" fill="none" xmlns="http://www.w3.org/2000/svg">
<g clip-path="url(#clip0)" filter="url(#filter0_d)">
<path d="M18 0C14.8355 0 11.7421 0.938384 9.11088 2.69649C6.4797 4.45459 4.42894 6.95345 3.21793 9.87706C2.00693 12.8007 1.69008 16.0177 2.30744 19.1214C2.92481 22.2251 4.44866 25.0761 6.6863 27.3137C8.92394 29.5513 11.7749 31.0752 14.8786 31.6926C17.9823 32.3099 21.1993 31.9931 24.1229 30.7821C27.0466 29.5711 29.5454 27.5203 31.3035 24.8891C33.0616 22.2579 34 19.1645 34 16C34 11.7565 32.3143 7.68687 29.3137 4.68629C26.3131 1.68571 22.2435 0 18 0V0ZM11 13.5V14.5H9.00001V13.5C9.00001 12.5717 9.36876 11.6815 10.0251 11.0251C10.6815 10.3687 11.5717 10 12.5 10C13.4283 10 14.3185 10.3687 14.9749 11.0251C15.6313 11.6815 16 12.5717 16 13.5V14.5H14V13.5C14 13.1022 13.842 12.7206 13.5607 12.4393C13.2794 12.158 12.8978 12 12.5 12C12.1022 12 11.7207 12.158 11.4393 12.4393C11.158 12.7206 11 13.1022 11 13.5ZM21 27C21 27.7956 20.6839 28.5587 20.1213 29.1213C19.5587 29.6839 18.7957 30 18 30C17.2044 30 16.4413 29.6839 15.8787 29.1213C15.3161 28.5587 15 27.7956 15 27V22C15 21.7348 15.1054 21.4804 15.2929 21.2929C15.4804 21.1054 15.7348 21 16 21H20C20.2652 21 20.5196 21.1054 20.7071 21.2929C20.8947 21.4804 21 21.7348 21 22V27ZM22 22.45V22C22 21.4696 21.7893 20.9609 21.4142 20.5858C21.0391 20.2107 20.5304 20 20 20H16C15.4696 20 14.9609 20.2107 14.5858 20.5858C14.2107 20.9609 14 21.4696 14 22V22.45C13.3717 21.8912 12.8687 21.2059 12.524 20.4389C12.1793 19.672 12.0007 18.8408 12 18H24C23.9993 18.8408 23.8207 19.672 23.476 20.4389C23.1313 21.2059 22.6283 21.8912 22 22.45ZM27 14.5H25V13.5C25 13.1022 24.842 12.7206 24.5607 12.4393C24.2794 12.158 23.8978 12 23.5 12C23.1022 12 22.7207 12.158 22.4393 12.4393C22.158 12.7206 22 13.1022 22 13.5V14.5H20V13.5C20 12.5717 20.3688 11.6815 21.0251 11.0251C21.6815 10.3687 22.5718 10 23.5 10C24.4283 10 25.3185 10.3687 25.9749 11.0251C26.6313 11.6815 27 12.5717 27 13.5V14.5Z" fill="white"/>
</g>
<defs>
<filter id="filter0_d" x="0" y="0" width="36" height="36" filterUnits="userSpaceOnUse" color-interpolation-filters="sRGB">
<feFlood flood-opacity="0" result="BackgroundImageFix"/>
<feColorMatrix in="SourceAlpha" type="matrix" values="0 0 0 0 0 0 0 0 0 0 0 0 0 0 0 0 0 0 127 0"/>
<feOffset dy="2"/>
<feGaussianBlur stdDeviation="1"/>
<feColorMatrix type="matrix" values="0 0 0 0 0 0 0 0 0 0 0 0 0 0 0 0 0 0 0.25 0"/>
<feBlend mode="normal" in2="BackgroundImageFix" result="effect1_dropShadow"/>
<feBlend mode="normal" in="SourceGraphic" in2="effect1_dropShadow" result="shape"/>
</filter>
<clipPath id="clip0">
<rect width="32" height="32" fill="white" transform="translate(2)"/>
</clipPath>
</defs>
</svg>
