<svg width="36" height="36" viewBox="0 0 36 36" fill="none" xmlns="http://www.w3.org/2000/svg">
<g filter="url(#filter0_d)">
<path d="M18 0C9.2 0 2 7.2 2 16C2 24.8 9.2 32 18 32C26.8 32 34 24.8 34 16C34 7.2 26.8 0 18 0ZM27.3 13.3L28.3 12.3C28.7 11.9 29.3 11.9 29.7 12.3C30.1 12.7 30.1 13.3 29.7 13.7L28.7 14.7C28.5 14.9 28.3 15 28 15C27.7 15 27.5 14.9 27.3 14.7C26.9 14.3 26.9 13.7 27.3 13.3ZM23.3 7.3C23.7 6.9 24.3 6.9 24.7 7.3L25.7 8.3C26.1 8.7 26.1 9.3 25.7 9.7C25.5 9.9 25.3 10 25 10C24.7 10 24.5 9.9 24.3 9.7L23.3 8.7C22.9 8.3 22.9 7.7 23.3 7.3ZM17.3 5.3L18.3 4.3C18.7 3.9 19.3 3.9 19.7 4.3C20.1 4.7 20.1 5.3 19.7 5.7L18.7 6.7C18.5 6.9 18.3 7 18 7C17.7 7 17.5 6.9 17.3 6.7C16.9 6.3 16.9 5.7 17.3 5.3ZM18 11C20.8 11 23 13.2 23 16C23 18.8 20.8 21 18 21C15.2 21 13 18.8 13 16C13 13.2 15.2 11 18 11ZM10.3 6.3C10.7 5.9 11.3 5.9 11.7 6.3L12.7 7.3C13.1 7.7 13.1 8.3 12.7 8.7C12.5 8.9 12.3 9 12 9C11.7 9 11.5 8.9 11.3 8.7L10.3 7.7C9.9 7.3 9.9 6.7 10.3 6.3ZM6.3 13.3L7.3 12.3C7.7 11.9 8.3 11.9 8.7 12.3C9.1 12.7 9.1 13.3 8.7 13.7L7.7 14.7C7.5 14.9 7.3 15 7 15C6.7 15 6.5 14.9 6.3 14.7C5.9 14.3 5.9 13.7 6.3 13.3ZM18 30C12.6 30 7.9 26.9 5.6 22.5C6.2 22.6 6.8 22.7 7.4 22.7C9.4 22.7 11.3 22 12.7 20.7C14 22.1 15.8 23 17.9 23C20 23 21.8 22.1 23.1 20.7C24.7 22.3 26.7 23 28.6 23C29.1 23 29.6 22.9 30.1 22.8C27.8 27.1 23.3 30 18 30Z" fill="white"/>
</g>
<defs>
<filter id="filter0_d" x="0" y="0" width="36" height="36" filterUnits="userSpaceOnUse" color-interpolation-filters="sRGB">
<feFlood flood-opacity="0" result="BackgroundImageFix"/>
<feColorMatrix in="SourceAlpha" type="matrix" values="0 0 0 0 0 0 0 0 0 0 0 0 0 0 0 0 0 0 127 0"/>
<feOffset dy="2"/>
<feGaussianBlur stdDeviation="1"/>
<feColorMatrix type="matrix" values="0 0 0 0 0 0 0 0 0 0 0 0 0 0 0 0 0 0 0.25 0"/>
<feBlend mode="normal" in2="BackgroundImageFix" result="effect1_dropShadow"/>
<feBlend mode="normal" in="SourceGraphic" in2="effect1_dropShadow" result="shape"/>
</filter>
</defs>
</svg>
