<svg width="32" height="32" viewBox="0 0 32 32" fill="none" xmlns="http://www.w3.org/2000/svg">
   <path d="M16 0C7.2 0 0 7.2 0 16C0 24.8 7.2 32 16 32C24.8 32 32 24.8 32 16C32 7.2 24.8 0 16 0ZM25.3 13.3L26.3 12.3C26.7 11.9 27.3 11.9 27.7 12.3C28.1 12.7 28.1 13.3 27.7 13.7L26.7 14.7C26.5 14.9 26.3 15 26 15C25.7 15 25.5 14.9 25.3 14.7C24.9 14.3 24.9 13.7 25.3 13.3ZM21.3 7.3C21.7 6.9 22.3 6.9 22.7 7.3L23.7 8.3C24.1 8.7 24.1 9.3 23.7 9.7C23.5 9.9 23.3 10 23 10C22.7 10 22.5 9.9 22.3 9.7L21.3 8.7C20.9 8.3 20.9 7.7 21.3 7.3ZM15.3 5.3L16.3 4.3C16.7 3.9 17.3 3.9 17.7 4.3C18.1 4.7 18.1 5.3 17.7 5.7L16.7 6.7C16.5 6.9 16.3 7 16 7C15.7 7 15.5 6.9 15.3 6.7C14.9 6.3 14.9 5.7 15.3 5.3ZM16 11C18.8 11 21 13.2 21 16C21 18.8 18.8 21 16 21C13.2 21 11 18.8 11 16C11 13.2 13.2 11 16 11ZM8.3 6.3C8.7 5.9 9.3 5.9 9.7 6.3L10.7 7.3C11.1 7.7 11.1 8.3 10.7 8.7C10.5 8.9 10.3 9 10 9C9.7 9 9.5 8.9 9.3 8.7L8.3 7.7C7.9 7.3 7.9 6.7 8.3 6.3ZM4.3 13.3L5.3 12.3C5.7 11.9 6.3 11.9 6.7 12.3C7.1 12.7 7.1 13.3 6.7 13.7L5.7 14.7C5.5 14.9 5.3 15 5 15C4.7 15 4.5 14.9 4.3 14.7C3.9 14.3 3.9 13.7 4.3 13.3ZM16 30C10.6 30 5.9 26.9 3.6 22.5C4.2 22.6 4.8 22.7 5.4 22.7C7.4 22.7 9.3 22 10.7 20.7C12 22.1 13.8 23 15.9 23C18 23 19.8 22.1 21.1 20.7C22.7 22.3 24.7 23 26.6 23C27.1 23 27.6 22.9 28.1 22.8C25.8 27.1 21.3 30 16 30Z" fill="white"/>
</svg>
