<svg width="32" height="32" viewBox="0 0 32 32" fill="none" xmlns="http://www.w3.org/2000/svg">
   <g clip-path="url(#clip0)">
      <path d="M31.947 12.294C31.8858 12.1046 31.7728 11.9362 31.6208 11.8077C31.4688 11.6792 31.2839 11.5958 31.087 11.567L21.323 10.148L16.957 1.30002C16.8588 1.13353 16.7189 0.995528 16.551 0.899656C16.3832 0.803784 16.1933 0.753357 16 0.753357C15.8067 0.753357 15.6168 0.803784 15.4489 0.899656C15.2811 0.995528 15.1412 1.13353 15.043 1.30002L10.677 10.146L0.912984 11.567C0.715981 11.5957 0.53093 11.6789 0.378754 11.8073C0.226577 11.9356 0.113345 12.104 0.0518596 12.2934C-0.00962608 12.4827 -0.0169129 12.6855 0.0308229 12.8787C0.0785588 13.072 0.179413 13.2481 0.321984 13.387L7.38798 20.273L5.72098 30C5.68727 30.1961 5.70911 30.3978 5.78404 30.5821C5.85897 30.7664 5.984 30.9261 6.14497 31.0431C6.30595 31.16 6.49645 31.2296 6.69492 31.2439C6.89339 31.2582 7.09189 31.2167 7.26798 31.124L16 26.531L24.733 31.122C24.9089 31.2145 25.1072 31.256 25.3054 31.2417C25.5037 31.2275 25.694 31.1581 25.8549 31.0414C26.0158 30.9247 26.1408 30.7654 26.216 30.5813C26.2911 30.3973 26.3133 30.196 26.28 30L24.613 20.275L31.679 13.389C31.8215 13.2498 31.9222 13.0734 31.9696 12.8798C32.0169 12.6863 32.0091 12.4833 31.947 12.294Z" fill="white"/>
   </g>
   <defs>
      <clipPath id="clip0">
         <rect width="32" height="32" fill="white"/>
      </clipPath>
   </defs>
</svg>
